<?xml version="1.0" standalone="no"?>
<!DOCTYPE svg PUBLIC "-//W3C//DTD SVG 20010904//EN"
 "http://www.w3.org/TR/2001/REC-SVG-20010904/DTD/svg10.dtd">
<svg version="1.0" xmlns="http://www.w3.org/2000/svg"
 width="512.000000pt" height="512.000000pt" viewBox="0 0 512.000000 512.000000"
 preserveAspectRatio="xMidYMid meet">
<metadata>
Created by potrace 1.11, written by Peter Selinger 2001-2013
</metadata>
<g transform="translate(0.000000,512.000000) scale(0.100000,-0.100000)"
fill="#000000" stroke="none">
<path d="M2255 4171 c-17 -10 -47 -21 -67 -25 -20 -4 -38 -10 -40 -14 -2 -5
-24 -23 -51 -41 -26 -17 -58 -43 -72 -57 -13 -13 -29 -24 -35 -24 -6 0 -8 -5
-5 -10 4 -6 -8 -24 -25 -40 -17 -16 -33 -39 -36 -52 -21 -90 -23 -171 -7 -303
17 -141 17 -134 -12 -141 -18 -4 -25 -13 -25 -29 0 -13 4 -26 9 -30 5 -3 12
-18 16 -34 3 -16 17 -43 31 -62 13 -18 24 -45 24 -60 0 -15 5 -29 12 -31 8 -3
8 -9 1 -23 -26 -46 83 -303 182 -430 49 -63 54 -73 49 -106 -4 -20 -2 -45 4
-55 6 -12 7 -41 3 -74 -7 -49 -9 -52 -15 -28 -5 15 -6 46 -4 68 2 22 2 40 0
40 -2 0 -22 -15 -45 -34 -40 -32 -69 -49 -302 -171 -106 -55 -181 -85 -257
-104 -26 -6 -69 -24 -96 -41 -27 -16 -53 -30 -59 -30 -54 0 -208 -313 -296
-602 -24 -79 -56 -165 -69 -191 -21 -39 -24 -54 -18 -83 5 -20 16 -41 25 -48
20 -14 17 -57 -10 -146 -41 -134 -62 -223 -127 -533 l-12 -57 -86 -1 c-72 -1
-79 -3 -45 -10 52 -10 3488 -10 3540 0 25 6 -69 9 -250 10 l-291 1 -13 33
c-12 29 -53 153 -101 302 -24 75 -40 156 -40 198 1 30 7 36 138 114 75 45 169
96 207 114 115 51 116 52 105 63 -5 5 -10 16 -10 24 0 8 -8 21 -17 28 -10 7
-13 14 -7 14 15 0 5 57 -12 71 -8 6 -14 20 -14 30 0 11 -4 19 -8 19 -12 0 -42
67 -42 93 0 12 -9 37 -20 55 -11 18 -20 39 -18 45 1 7 -10 38 -25 70 -15 32
-27 60 -27 62 0 3 -18 43 -40 90 -22 47 -45 106 -50 131 -6 25 -18 60 -27 77
-24 47 -85 105 -124 119 -18 6 -42 20 -53 29 -18 17 -211 119 -264 140 -17 6
-21 6 -16 -3 5 -8 2 -9 -10 -5 -10 4 -20 7 -22 7 -3 0 -2 4 1 10 4 6 -1 7 -11
3 -12 -4 -15 -3 -10 5 5 8 2 10 -9 6 -9 -4 -24 1 -34 11 -11 9 -26 17 -34 19
-8 1 -26 9 -40 19 -15 9 -35 17 -47 17 -12 0 -20 7 -20 16 0 12 -6 15 -22 11
-15 -4 -28 2 -45 21 -13 15 -23 30 -23 35 0 4 -5 7 -10 7 -6 0 -3 -12 7 -26
16 -24 16 -28 -2 -60 -31 -58 -173 -186 -245 -220 -169 -82 -356 -78 -442 8
-32 32 -38 44 -38 81 0 23 7 60 14 82 17 50 42 55 111 21 28 -13 53 -22 58
-19 12 7 -24 60 -50 72 -13 6 -23 19 -23 31 0 11 0 23 -1 27 0 8 97 42 121 43
8 0 21 9 27 19 12 19 11 19 -59 0 -74 -21 -178 -18 -196 5 -17 21 -20 55 -6
73 17 23 17 48 0 76 -8 12 -13 40 -12 62 2 39 3 40 41 45 l40 6 -35 7 c-19 4
-43 9 -52 10 -10 1 -18 3 -18 4 0 10 37 43 47 43 26 0 12 21 -17 27 -25 5 -30
10 -30 35 0 16 -9 41 -20 55 -21 27 -27 68 -11 77 5 3 11 32 15 63 11 105 18
143 27 149 5 3 26 -22 47 -55 20 -33 46 -62 57 -65 66 -18 235 16 254 52 9 16
15 83 12 130 -1 20 -6 22 -51 22 -38 0 -50 4 -50 15 0 8 -6 15 -12 15 -9 0 -8
4 2 10 22 14 -133 13 -165 -2 -14 -6 -25 -17 -25 -24 0 -7 -6 -14 -12 -17 -7
-3 14 -3 47 -1 44 3 54 2 38 -5 -12 -6 -39 -12 -60 -15 -21 -3 -60 -8 -87 -12
-38 -5 -52 -4 -60 8 -13 18 -69 48 -89 48 -8 0 -17 6 -20 14 -8 21 4 86 15 86
6 0 7 13 3 33 -3 17 -9 51 -12 75 -3 25 -10 42 -18 42 -15 0 -55 -76 -55 -104
0 -9 -4 -14 -10 -11 -13 8 -13 -59 -1 -101 7 -26 5 -36 -14 -60 l-22 -28 -8
85 c-11 110 -8 144 20 200 23 44 89 131 105 137 5 2 10 -12 12 -30 3 -29 7
-33 33 -36 21 -1 40 6 62 25 57 49 107 76 153 84 25 5 80 15 123 23 78 15 80
15 158 -10 43 -14 79 -31 79 -37 0 -7 16 -29 35 -51 20 -21 38 -50 41 -65 3
-14 11 -44 17 -66 6 -22 10 -52 9 -66 -3 -28 23 -63 39 -54 17 11 32 -41 22
-82 l-9 -38 -107 3 c-102 2 -107 1 -107 -18 0 -18 6 -20 80 -20 79 0 80 0 85
-27 3 -16 10 -43 16 -61 6 -17 8 -42 4 -55 -6 -21 -5 -21 8 -4 8 10 18 37 21
60 9 57 17 67 62 79 76 20 100 20 113 4 21 -26 32 -19 32 22 1 20 2 89 4 152
l3 115 -51 100 c-55 107 -107 170 -150 180 -14 4 -24 12 -21 19 3 7 -13 16
-41 24 -25 6 -45 16 -45 22 0 5 -7 10 -15 10 -9 0 -26 6 -38 14 -30 18 -181
36 -303 35 -76 0 -106 -5 -129 -18z m635 -628 c-8 -3 -22 -11 -30 -17 -13 -10
-13 -9 -1 7 7 9 21 17 30 16 13 0 14 -1 1 -6z m-370 -23 c0 -5 13 -8 29 -6 34
4 41 -7 41 -62 0 -47 -8 -59 -45 -67 -25 -6 -28 -5 -17 6 22 24 13 32 -33 26
-26 -4 -47 -2 -50 4 -10 15 15 39 41 39 13 0 24 5 24 10 0 6 12 10 28 10 l27
0 -29 15 c-15 8 -32 13 -36 10 -12 -7 -70 6 -70 16 0 5 20 9 45 9 25 0 45 -4
45 -10z m-135 -15 c-51 -25 -38 -68 32 -111 16 -10 14 -13 -20 -30 -35 -17
-41 -17 -65 -3 -15 8 -29 25 -30 39 -2 13 -10 33 -18 45 -19 29 -9 54 25 61
14 3 31 7 36 9 6 2 24 4 40 4 l30 1 -30 -15z m498 -2 c-7 -2 -19 -2 -25 0 -7
3 -2 5 12 5 14 0 19 -2 13 -5z m-717 -72 c-3 -5 -15 -7 -26 -4 -28 7 -25 13 6
13 14 0 23 -4 20 -9z m-90 -349 c3 -19 9 -30 16 -26 13 8 28 -14 28 -43 0 -26
-17 -40 -32 -25 -13 13 -68 141 -68 158 0 6 10 16 23 21 20 9 22 7 25 -21 1
-17 5 -46 8 -64z m1049 -522 c3 -6 -1 -7 -9 -4 -18 7 -21 14 -7 14 6 0 13 -4
16 -10z m-619 -562 c4 -6 0 -16 -8 -22 -8 -6 -18 -32 -22 -58 -5 -32 -12 -48
-22 -48 -10 0 -14 13 -14 49 0 33 -5 51 -14 54 -11 5 -16 -7 -22 -49 -5 -44
-10 -54 -25 -54 -11 0 -22 7 -26 16 -5 15 -7 15 -15 0 -5 -9 -16 -16 -23 -16
-12 0 -15 15 -15 65 0 62 1 65 23 65 15 0 28 -9 35 -22 l11 -23 0 22 c1 16 8
23 29 26 56 8 101 7 108 -5z m73 -54 c7 -37 9 -69 6 -72 -3 -4 -16 0 -28 7
-15 10 -22 10 -25 2 -6 -18 -32 -13 -32 7 0 10 7 42 15 70 12 39 21 52 34 52
15 0 21 -12 30 -66z m105 51 c14 -15 15 -70 1 -112 -6 -19 -72 -16 -79 3 -10
27 -7 99 6 112 17 17 54 15 72 -3z m-486 -7 c9 -9 12 -9 12 0 0 7 9 12 21 12
15 0 19 -4 15 -16 -4 -9 -11 -37 -18 -61 -11 -44 -31 -64 -48 -47 -4 5 -11 35
-15 67 -6 46 -5 57 7 57 8 0 19 -5 26 -12z m92 -53 c0 -58 -2 -65 -20 -65 -16
0 -20 7 -20 34 0 54 11 96 26 96 11 0 14 -17 14 -65z m510 44 c0 -16 -5 -20
-20 -16 -11 3 -23 1 -26 -4 -3 -5 0 -9 5 -9 15 0 14 -30 -1 -31 -7 -1 -2 -4
12 -8 14 -4 26 -15 28 -24 3 -14 -5 -17 -49 -17 l-52 0 7 46 c3 26 6 55 6 65
0 16 8 19 45 19 39 0 45 -3 45 -21z m571 -108 c77 -78 -5 -205 -104 -160 -58
26 -74 123 -25 158 55 40 90 40 129 2z m229 -11 c0 -5 -2 -10 -4 -10 -3 0 -8
5 -11 10 -3 6 -1 10 4 10 6 0 11 -4 11 -10z m-695 -74 c70 -29 95 -125 56
-206 -11 -22 -16 -42 -12 -44 8 -5 33 8 32 18 -1 3 2 5 5 4 7 -4 33 43 34 60
0 20 27 44 35 32 8 -14 48 -13 63 2 9 9 13 7 18 -6 5 -12 -4 -29 -30 -55 -39
-40 -47 -71 -18 -71 23 0 68 51 84 95 7 22 19 35 30 35 22 0 23 -25 3 -60 -40
-71 1 -66 44 5 22 35 40 55 52 55 25 0 24 -11 -6 -69 -17 -34 -26 -74 -31
-131 -10 -112 -6 -110 -221 -110 l-173 0 0 24 c0 14 -4 28 -10 31 -31 19 5 25
165 25 172 0 175 0 190 24 8 13 13 31 9 40 -6 16 -8 16 -28 -2 -35 -33 -64
-44 -73 -30 -4 7 -6 21 -5 31 2 9 -2 17 -7 17 -6 0 -11 -4 -11 -8 0 -10 -45
-32 -65 -32 -21 0 -41 40 -25 50 6 4 11 10 11 14 -1 3 6 20 15 37 11 23 13 34
5 42 -8 8 -11 7 -11 -4 0 -19 -65 -86 -102 -105 -38 -19 -124 -31 -114 -16 4
7 22 13 39 13 24 1 26 3 10 6 -29 6 -30 34 -2 59 47 42 66 137 34 166 -8 7
-21 19 -30 26 -11 10 -13 17 -6 26 9 10 2 11 -32 6 -23 -3 -52 -12 -64 -19
-13 -7 -23 -8 -23 -2 0 15 21 25 70 32 25 3 49 7 53 8 4 0 23 -5 42 -13z
m-164 -86 c17 0 18 -3 7 -20 -7 -11 -15 -20 -19 -20 -9 0 -28 68 -20 75 3 4 7
-3 9 -14 2 -13 11 -21 23 -21z m79 -19 c0 -24 -16 -36 -24 -19 -3 7 -4 1 -1
-14 3 -15 1 -30 -5 -33 -6 -3 -7 1 -4 10 5 13 2 14 -19 6 -14 -5 -27 -7 -30
-5 -7 8 26 42 36 37 4 -2 7 5 7 16 0 14 6 21 20 21 13 0 20 -7 20 -19z m-357
-83 c-18 -36 -31 -43 -25 -13 2 14 8 25 12 25 4 0 6 10 6 23 -3 33 7 45 14 17
4 -14 1 -37 -7 -52z m-146 25 c-3 -10 -5 -4 -5 12 0 17 2 24 5 18 2 -7 2 -21
0 -30z m151 -85 c-9 -14 -27 -24 -44 -25 -29 -2 -29 -2 4 9 17 6 32 17 32 24
0 8 5 14 11 14 7 0 6 -8 -3 -22z m205 16 c12 -4 13 -12 7 -34 -5 -19 -5 -30 3
-33 6 -2 5 -6 -4 -9 -9 -4 -15 0 -16 11 -1 9 -4 28 -7 44 -5 29 -5 30 17 21z
m-295 -34 c7 -11 22 -21 35 -21 20 -1 20 -2 2 -6 -11 -3 -26 -10 -32 -15 -9
-7 -15 -6 -19 6 -3 9 -12 16 -20 16 -8 0 -14 9 -14 20 0 12 7 20 18 20 9 0 23
-9 30 -20z m90 -132 c2 -60 -5 -68 -56 -68 -26 0 -54 5 -62 10 -10 7 0 8 35 5
28 -3 43 -2 35 2 -21 9 -39 35 -40 56 0 10 -4 16 -9 13 -5 -4 -19 -2 -31 2
-16 6 0 9 52 10 l75 2 1 -32z m447 -138 c4 -6 -5 -10 -19 -10 -14 0 -26 5 -26
10 0 6 9 10 19 10 11 0 23 -4 26 -10z m85 -2 c17 -10 22 -10 28 -1 7 10 14 10
35 0 15 -6 27 -18 27 -24 0 -16 -66 -17 -76 -2 -5 8 -10 6 -16 -5 -5 -9 -14
-16 -19 -16 -6 0 -7 5 -3 12 4 6 3 8 -3 5 -6 -4 -19 0 -29 8 -18 14 -18 14 4
15 12 0 22 5 22 10 0 13 6 13 30 -2z m-263 -20 c-3 -8 -6 -5 -6 6 -1 11 2 17
5 13 3 -3 4 -12 1 -19z m476 -5 c20 -16 36 -34 37 -40 0 -15 -26 -17 -35 -3
-3 6 -11 10 -17 10 -6 0 -3 -9 7 -20 15 -16 16 -25 7 -44 -14 -31 -48 -51 -58
-35 -4 7 1 16 10 21 16 9 23 29 9 27 -24 -4 -53 2 -53 11 0 6 10 15 23 21 19
8 17 9 -10 5 -41 -7 -42 6 -5 44 34 36 40 36 85 3z m-403 13 c0 -3 -4 -8 -10
-11 -5 -3 -10 -1 -10 4 0 6 5 11 10 11 6 0 10 -2 10 -4z m550 -63 c0 -83 -7
-97 -42 -84 -18 7 -29 6 -37 -2 -22 -22 -32 7 -25 81 l7 72 48 0 49 0 0 -67z
m-562 12 c-3 -3 -9 2 -12 12 -6 14 -5 15 5 6 7 -7 10 -15 7 -18z m122 -6 c0
-6 -4 -7 -10 -4 -5 3 -10 11 -10 16 0 6 5 7 10 4 6 -3 10 -11 10 -16z m170 -2
c0 -18 -38 -67 -52 -67 -6 0 -3 11 6 25 21 32 20 35 -9 35 -22 0 -25 -4 -25
-35 0 -19 -4 -35 -10 -35 -5 0 -10 15 -10 33 0 26 -6 36 -22 44 -18 8 -8 10
50 12 56 1 72 -1 72 -12z m-533 -19 c-3 -8 -6 -5 -6 6 -1 11 2 17 5 13 3 -3 4
-12 1 -19z m361 -43 c-11 -11 -39 8 -33 23 4 12 2 12 -19 -2 -17 -10 -27 -12
-31 -5 -8 12 -8 12 20 27 16 9 24 7 44 -13 14 -14 22 -27 19 -30z m-1291 -47
c18 -77 19 -99 10 -290 l-10 -208 -138 0 c-155 0 -146 -7 -107 80 53 116 118
283 141 361 21 74 55 134 78 138 3 1 15 -36 26 -81z m1183 68 c0 -2 -8 -10
-17 -17 -16 -13 -17 -12 -4 4 13 16 21 21 21 13z m-65 -25 c3 -5 2 -12 -3 -15
-5 -3 -9 1 -9 9 0 17 3 19 12 6z m870 -68 c14 -83 49 -214 87 -323 21 -63 42
-123 45 -132 5 -16 -4 -18 -95 -18 l-99 0 -7 38 c-3 20 -10 62 -16 92 -5 30
-6 57 -2 60 10 7 43 161 58 273 8 57 21 61 29 10z m-115 -137 c-22 -47 -45
-86 -50 -86 -15 0 -12 9 20 62 17 26 30 53 30 59 0 6 7 17 15 25 8 9 16 25 16
37 1 16 3 17 6 5 2 -9 -14 -55 -37 -102z m-1352 82 c17 -17 15 -38 -5 -38 -15
0 -15 -1 0 -18 37 -41 12 -86 -45 -80 -25 2 -34 8 -36 26 -2 12 2 22 8 22 7 0
6 8 -4 21 -8 12 -13 28 -10 35 2 8 6 21 9 29 5 18 66 20 83 3z m78 -13 c3 -37
6 -40 13 -10 4 21 13 31 29 33 19 3 22 -1 22 -35 0 -74 -11 -113 -31 -113 -14
0 -19 7 -19 25 0 14 -4 25 -10 25 -5 0 -10 -11 -10 -25 0 -18 -5 -25 -20 -25
-18 0 -20 7 -20 68 0 38 3 72 7 76 13 13 38 1 39 -19z m127 13 c-2 -5 -3 -37
-3 -73 0 -58 -2 -65 -20 -65 -18 0 -20 7 -20 76 0 72 1 75 23 72 12 -2 21 -6
20 -10z m115 0 c14 -14 16 -64 2 -73 -6 -4 -6 -15 0 -31 13 -34 13 -34 -10
-34 -10 0 -24 8 -29 18 -10 16 -10 16 -11 0 0 -11 -8 -18 -20 -18 -18 0 -20 7
-20 75 l0 75 38 0 c21 0 43 -5 50 -12z m137 -10 c0 -10 -4 -17 -10 -15 -5 1
-12 -23 -15 -53 -4 -42 -9 -56 -22 -58 -15 -3 -18 4 -18 48 0 36 -4 52 -15 56
-8 4 -15 15 -15 26 0 17 6 19 48 16 37 -2 47 -7 47 -20z m233 10 c15 -15 16
-48 1 -48 -8 0 -8 -4 0 -14 22 -26 9 -69 -22 -80 -45 -16 -62 1 -64 69 -1 33
3 65 9 72 13 16 60 17 76 1z m142 -8 c0 -10 -6 -23 -14 -27 -9 -5 -16 -28 -18
-58 -3 -42 -6 -50 -23 -50 -17 0 -20 8 -23 53 -2 28 -7 52 -13 52 -5 0 -9 11
-9 25 0 23 3 25 50 25 43 0 50 -3 50 -20z m111 4 c18 -22 12 -114 -8 -129 -16
-12 -60 -9 -79 6 -13 11 -6 108 8 127 14 17 63 15 79 -4z m227 -13 c2 -14 0
-21 -6 -17 -6 4 -13 2 -17 -4 -3 -5 -1 -10 4 -10 15 0 14 -37 -1 -43 -7 -3 -3
-6 10 -6 16 -1 22 -7 23 -23 1 -22 1 -22 8 2 8 30 38 35 33 5 -5 -27 -2 -25
-66 -31 l-56 -6 0 35 c0 19 -3 55 -6 81 l-7 47 39 -3 c32 -2 40 -7 42 -27z
m-1398 -1 c0 -15 -7 -20 -25 -20 -14 0 -25 -4 -25 -10 0 -5 7 -10 15 -10 8 0
15 -7 15 -15 0 -8 -4 -15 -10 -15 -5 0 -10 -4 -10 -10 0 -5 11 -10 25 -10 16
0 25 -6 25 -15 0 -23 -67 -20 -74 3 -11 39 -17 102 -11 112 3 5 22 10 41 10
27 0 34 -4 34 -20z m1298 8 c14 -14 16 -64 2 -73 -5 -3 -7 -19 -3 -35 5 -26 2
-30 -16 -30 -12 0 -21 6 -21 15 0 8 -4 15 -10 15 -5 0 -10 -7 -10 -15 0 -16
-9 -19 -26 -7 -7 4 -9 32 -6 75 l4 67 37 0 c20 0 42 -5 49 -12z m-1468 -8 c0
-5 -4 -10 -10 -10 -5 0 -11 -24 -12 -52 l-2 -53 -3 53 c-2 28 -8 52 -14 52 -5
0 -9 5 -9 10 0 6 11 10 25 10 14 0 25 -4 25 -10z m70 -5 c0 -9 -6 -12 -16 -8
-14 5 -15 1 -9 -25 4 -22 3 -32 -5 -32 -6 0 -10 -6 -7 -12 2 -7 14 -12 25 -10
15 2 22 -2 22 -13 0 -12 -7 -15 -27 -13 -27 3 -28 6 -31 66 -3 61 -2 62 23 62
15 0 25 -6 25 -15z m850 -95 c0 -13 -7 -20 -20 -20 -13 0 -20 7 -20 20 0 13 7
20 20 20 13 0 20 -7 20 -20z m-700 1 c0 -6 -4 -13 -10 -16 -5 -3 -10 1 -10 9
0 9 5 16 10 16 6 0 10 -4 10 -9z m1462 -83 c-15 -15 -24 -6 -16 16 5 12 10 14
17 7 8 -8 8 -14 -1 -23z m-1382 -3 c0 -8 -4 -15 -10 -15 -5 0 -10 -18 -10 -40
0 -22 -5 -40 -10 -40 -13 0 -16 11 -24 68 -6 41 -6 42 24 42 20 0 30 -5 30
-15z m75 -40 c0 -49 -1 -50 -30 -50 -28 0 -30 3 -33 39 -5 54 3 68 35 64 26
-3 28 -6 28 -53z m79 37 c-4 -10 -7 -26 -7 -37 0 -11 3 -27 7 -36 6 -14 1 -17
-28 -17 l-36 0 0 53 0 53 36 0 c29 0 34 -3 28 -16z m90 1 c-4 -10 -9 -35 -12
-55 -2 -23 -9 -38 -17 -38 -18 0 -21 7 -29 63 l-7 47 36 0 c32 0 36 -3 29 -17z
m81 -38 c0 -49 -1 -50 -30 -50 -28 0 -30 3 -33 39 -5 54 3 68 35 64 26 -3 28
-6 28 -53z m183 3 c-3 -49 -5 -53 -30 -56 -33 -4 -60 34 -32 45 9 3 20 0 25
-8 6 -9 9 0 9 29 0 31 4 42 16 42 12 0 14 -10 12 -52z m71 2 c6 -28 11 -53 11
-54 0 -2 -16 -4 -36 -4 -36 0 -36 0 -29 37 10 58 15 71 30 71 8 0 18 -20 24
-50z m89 17 c3 -22 -1 -30 -17 -34 -12 -3 -21 -14 -21 -24 0 -11 -7 -19 -15
-19 -12 0 -15 13 -15 56 l0 55 33 -3 c27 -3 33 -8 35 -31z m72 7 c6 -14 10
-38 10 -54 0 -25 -3 -28 -35 -28 -33 0 -34 1 -28 32 15 77 35 97 53 50z m60
15 c0 -8 4 -8 15 1 22 18 35 3 35 -40 0 -33 3 -37 20 -33 14 4 20 0 20 -11 0
-12 -10 -16 -40 -16 -25 0 -40 5 -41 13 0 10 -2 10 -6 0 -8 -21 -30 -14 -37
11 -8 34 4 86 20 86 8 0 14 -5 14 -11z m-1649 -120 c9 -29 12 -52 7 -56 -6 -3
-8 -14 -5 -24 5 -17 -1 -19 -69 -19 -41 0 -74 4 -74 9 0 18 31 81 40 81 12 0
60 48 60 60 0 5 6 7 13 4 6 -2 19 -27 28 -55z m1217 34 c-5 -25 -28 -28 -28
-4 0 12 6 21 16 21 9 0 14 -7 12 -17z m1098 1 c-3 -9 -6 -23 -6 -32 0 -12 -3
-13 -11 -5 -13 13 -3 53 13 53 5 0 7 -7 4 -16z"/>
<path d="M3269 1873 c-18 -5 -36 -36 -42 -75 -4 -28 19 -58 55 -71 27 -10 74
12 87 39 17 38 14 53 -18 85 -28 27 -45 32 -82 22z m71 -73 c0 -27 -4 -50 -10
-50 -5 0 -10 9 -10 20 0 13 -7 20 -20 20 -13 0 -18 -5 -14 -15 4 -8 1 -15 -5
-15 -12 0 -16 72 -4 83 3 4 19 7 35 7 27 0 28 -2 28 -50z"/>
<path d="M3287 1833 c-13 -12 -7 -23 13 -23 11 0 20 7 20 15 0 15 -21 21 -33
8z"/>
<path d="M2940 1609 c0 -5 5 -7 10 -4 6 3 10 8 10 11 0 2 -4 4 -10 4 -5 0 -10
-5 -10 -11z"/>
<path d="M3290 1195 c0 -8 9 -15 20 -15 11 0 20 7 20 15 0 8 -9 15 -20 15 -11
0 -20 -7 -20 -15z"/>
<path d="M3290 1136 c0 -17 32 -15 38 2 2 7 -6 12 -17 12 -12 0 -21 -6 -21
-14z"/>
<path d="M2100 949 c0 -5 5 -7 10 -4 6 3 10 8 10 11 0 2 -4 4 -10 4 -5 0 -10
-5 -10 -11z"/>
<path d="M2420 950 c0 -5 5 -10 10 -10 6 0 10 5 10 10 0 6 -4 10 -10 10 -5 0
-10 -4 -10 -10z"/>
<path d="M2788 893 c7 -3 16 -2 19 1 4 3 -2 6 -13 5 -11 0 -14 -3 -6 -6z"/>
<path d="M3047 953 c-11 -10 -8 -63 3 -63 6 0 10 16 10 35 0 36 -2 40 -13 28z"/>
<path d="M2092 745 c0 -16 2 -22 5 -12 2 9 2 23 0 30 -3 6 -5 -1 -5 -18z"/>
<path d="M2342 745 c0 -16 2 -22 5 -12 2 9 2 23 0 30 -3 6 -5 -1 -5 -18z"/>
<path d="M2460 3239 c88 -77 100 -90 101 -117 1 -22 2 -23 6 -5 4 22 -21 83
-35 83 -4 0 -25 16 -46 35 -22 19 -44 35 -50 35 -6 0 5 -14 24 -31z"/>
<path d="M2884 3146 c-3 -13 -4 -35 -2 -47 2 -17 6 -11 14 24 6 26 7 47 3 47
-5 0 -11 -11 -15 -24z"/>
<path d="M2290 3135 c0 -9 5 -15 11 -13 6 2 11 8 11 13 0 5 -5 11 -11 13 -6 2
-11 -4 -11 -13z"/>
<path d="M2475 3099 c4 -5 -1 -19 -11 -30 -22 -25 -10 -24 32 2 38 23 36 39
-2 39 -15 0 -23 -4 -19 -11z"/>
</g>
</svg>
